<?xml version="1.0" encoding="UTF-8" standalone="no"?><!DOCTYPE svg PUBLIC "-//W3C//DTD SVG 1.1//EN" "http://www.w3.org/Graphics/SVG/1.1/DTD/svg11.dtd"><svg width="100%" height="100%" viewBox="0 0 1334 1334" version="1.1" xmlns="http://www.w3.org/2000/svg" xmlns:xlink="http://www.w3.org/1999/xlink" xml:space="preserve" xmlns:serif="http://www.serif.com/" style="fill-rule:evenodd;clip-rule:evenodd;stroke-linejoin:round;stroke-miterlimit:2;"><g><path d="M666.667,562.5l416.666,-0l0,104.167c0,229.958 -186.708,416.666 -416.666,416.666c-229.959,0 -416.667,-186.708 -416.667,-416.666c0,-229.959 186.708,-416.667 416.667,-416.667l416.666,-0l0,208.333l-416.666,0c-114.98,0 -208.334,93.354 -208.334,208.334c0,114.979 93.354,208.333 208.334,208.333c77.041,-0 144.396,-41.917 180.416,-104.167l-180.416,0c-57.5,0 -104.167,-46.666 -104.167,-104.166c0,-57.5 46.667,-104.167 104.167,-104.167Z" style="fill:#00f;"/></g></svg>