<?xml version="1.0" encoding="UTF-8" standalone="no"?><!DOCTYPE svg PUBLIC "-//W3C//DTD SVG 1.1//EN" "http://www.w3.org/Graphics/SVG/1.1/DTD/svg11.dtd"><svg width="100%" height="100%" viewBox="0 0 24609 24609" version="1.1" xmlns="http://www.w3.org/2000/svg" xmlns:xlink="http://www.w3.org/1999/xlink" xml:space="preserve" xmlns:serif="http://www.serif.com/" style="fill-rule:evenodd;clip-rule:evenodd;stroke-linejoin:round;stroke-miterlimit:2;"><g><path d="M12304.2,10481.2l7291.67,0l0,1822.92c0,4024.27 -3267.39,7291.67 -7291.67,7291.67c-4024.27,0 -7291.67,-3267.39 -7291.67,-7291.67c0,-4024.27 3267.4,-7291.67 7291.67,-7291.67l7291.67,0l0,3645.83l-7291.67,0c-2012.14,0 -3645.83,1633.7 -3645.83,3645.83c0,2012.13 1633.7,3645.83 3645.83,3645.83c1348.23,0 2526.93,-733.542 3157.29,-1822.92l-3157.29,0c-1006.25,0 -1822.92,-816.666 -1822.92,-1822.92c0,-1006.25 816.667,-1822.92 1822.92,-1822.92Z"/></g></svg>