<?xml version="1.0" encoding="UTF-8" standalone="no"?><!DOCTYPE svg PUBLIC "-//W3C//DTD SVG 1.1//EN" "http://www.w3.org/Graphics/SVG/1.1/DTD/svg11.dtd"><svg width="100%" height="100%" viewBox="0 0 102538 102538" version="1.1" xmlns="http://www.w3.org/2000/svg" xmlns:xlink="http://www.w3.org/1999/xlink" xml:space="preserve" xmlns:serif="http://www.serif.com/" style="fill-rule:evenodd;clip-rule:evenodd;stroke-linejoin:round;stroke-miterlimit:2;"><g><rect x="-2604.17" y="-2362.5" width="109392" height="107783" style="fill:#fff;"/><path d="M51267.5,43671.7l30382,-0l0,7595.5c0,16767.8 -13614.1,30382 -30382,30382c-16767.8,0 -30382,-13614.1 -30382,-30382c-0,-16767.8 13614.2,-30382 30382,-30382l30382,0l0,15191l-30382,-0c-8383.92,-0 -15191,6807.08 -15191,15191c-0,8383.88 6807.08,15191 15191,15191c5617.62,0 10528.9,-3056.43 13155.4,-7595.5l-13155.4,0c-4192.71,0 -7595.5,-3402.78 -7595.5,-7595.5c0,-4192.71 3402.78,-7595.5 7595.5,-7595.5l0,0.084Z"/></g></svg>