<?xml version="1.0" encoding="UTF-8" standalone="no"?><!DOCTYPE svg PUBLIC "-//W3C//DTD SVG 1.1//EN" "http://www.w3.org/Graphics/SVG/1.1/DTD/svg11.dtd"><svg width="100%" height="100%" viewBox="0 0 6080 6080" version="1.1" xmlns="http://www.w3.org/2000/svg" xmlns:xlink="http://www.w3.org/1999/xlink" xml:space="preserve" xmlns:serif="http://www.serif.com/" style="fill-rule:evenodd;clip-rule:evenodd;stroke-linejoin:round;stroke-miterlimit:2;"><rect x="0" y="0" width="6076.38" height="6076.38" style="fill:#fff;"/><g><path d="M1237.1,2724.72c-54.073,33.251 -120.574,49.876 -199.482,49.876c-129.882,0 -236.277,-44.994 -319.165,-134.981c-86.442,-90.433 -129.664,-214.117 -129.664,-371.041c0,-158.696 43.656,-285.925 130.991,-381.675c87.324,-95.751 202.809,-143.626 346.435,-143.626c124.564,0 224.642,31.587 300.223,94.75c75.58,63.174 118.91,141.962 129.99,236.386l-201.471,0c-15.517,-66.936 -53.421,-113.702 -113.713,-140.298c-33.686,-14.636 -71.145,-21.943 -112.365,-21.943c-78.908,0 -143.746,29.804 -194.502,89.433c-50.757,59.619 -76.135,149.28 -76.135,268.963c-0,120.585 27.488,205.919 82.452,256.012c54.965,50.082 117.475,75.135 187.511,75.135c68.719,-0 125.01,-19.833 168.895,-59.51c43.895,-39.677 70.926,-91.651 81.126,-155.934l-226.742,-0l0,-163.579l408.272,0l-0,549.908l-131.611,-0l-24.65,-146.279c-39.448,46.538 -74.917,79.342 -106.395,98.403Z" style="fill-rule:nonzero;"/><path d="M2176.02,2115.64c61.174,76.689 91.76,167.34 91.76,271.952c0,106.396 -30.586,197.383 -91.76,272.964c-61.173,75.58 -154.042,113.376 -278.617,113.376c-124.565,-0 -217.434,-37.796 -278.607,-113.376c-61.174,-75.581 -91.76,-166.568 -91.76,-272.964c-0,-104.612 30.586,-195.263 91.76,-271.952c61.173,-76.69 154.042,-115.04 278.607,-115.04c124.575,-0 217.444,38.35 278.617,115.04Zm-279.281,45.211c-55.41,-0 -98.077,19.615 -128,58.846c-29.924,39.231 -44.885,95.196 -44.885,167.895c-0,72.71 14.961,128.784 44.885,168.232c29.923,39.459 72.59,59.184 128,59.184c55.411,-0 97.969,-19.725 127.675,-59.184c29.695,-39.448 44.548,-95.522 44.548,-168.232c-0,-72.699 -14.853,-128.664 -44.548,-167.895c-29.706,-39.231 -72.264,-58.846 -127.675,-58.846Z" style="fill-rule:nonzero;"/><path d="M2661.35,2198.76c-76.244,0 -127.446,24.824 -153.596,74.472c-14.636,27.933 -21.943,70.926 -21.943,129.001l0,370.367l-190.837,-0l-0,-766.178l180.855,0l0,143.8c29.261,-48.321 58.02,-81.67 77.919,-101.427c17.353,-17.234 56.083,-38.802 111.461,-40.726c3.545,-0.12 41.983,-0.157 50.41,0.278l42.596,191.223c-16.158,-1.142 -91.102,-0.81 -96.865,-0.81Z" style="fill-rule:nonzero;"/><path d="M3048.82,2557.34l155.38,-555.224l202.896,0l-255.882,733.427c-47.875,137.417 -85.779,222.642 -113.702,255.675c-27.933,33.023 -83.779,49.539 -167.569,49.539c-16.842,0 -30.358,-0.12 -40.557,-0.337c-10.199,-0.217 -25.487,-1 -45.885,-2.327l-0,-151.607l23.943,1.327c18.615,0.892 36.349,0.228 53.192,-1.99c16.843,-2.218 31.032,-7.318 42.558,-15.299c11.08,-7.535 21.388,-23.268 30.924,-47.211c9.525,-23.933 13.406,-38.568 11.634,-43.885l-271.17,-771.473l210.856,-2.512l163.382,551.897Z" style="fill-rule:nonzero;"/><path d="M4012.57,2536.55c-4.882,43.004 -27.26,86.671 -67.165,131.001c-62.054,70.481 -148.942,105.722 -260.655,105.722c-92.206,-0 -173.549,-29.696 -244.03,-89.096c-70.48,-59.412 -105.732,-156.043 -105.732,-289.916c0,-125.456 31.816,-221.652 95.424,-288.588c63.609,-66.937 146.181,-100.405 247.695,-100.405c60.281,0 114.583,11.298 162.904,33.914c48.321,22.606 88.215,58.292 119.693,107.048c28.369,43.004 46.766,92.869 55.193,149.617c4.871,33.251 6.872,81.126 5.98,143.626l-496.051,-0c2.664,72.699 25.498,123.684 68.491,152.933c26.161,18.18 57.628,27.27 94.424,27.27c39.013,0 70.709,-11.091 95.087,-33.251c13.298,-11.971 25.041,-28.596 35.24,-49.875l193.502,-0Zm-187.511,-222.088c-3.109,-50.093 -18.288,-88.106 -45.548,-114.039c-27.27,-25.933 -61.064,-38.894 -101.404,-38.894c-43.885,-0 -77.919,13.744 -102.068,41.221c-24.161,27.487 -39.351,64.728 -45.549,111.712l294.569,0Z" style="fill-rule:nonzero;"/><path d="M4697.02,2117.15c61.174,76.689 91.76,167.351 91.76,271.963c0,106.396 -30.586,197.384 -91.76,272.964c-61.173,75.581 -154.053,113.365 -278.618,113.365c-124.564,0 -217.433,-37.784 -278.606,-113.365c-61.174,-75.58 -91.76,-166.568 -91.76,-272.964c-0,-104.612 30.586,-195.274 91.76,-271.963c61.173,-76.69 154.042,-115.029 278.606,-115.029c124.565,0 217.445,38.339 278.618,115.029Zm-279.281,45.222c-55.41,0 -98.077,19.616 -128,58.846c-29.924,39.231 -44.886,95.196 -44.886,167.895c0,72.699 14.962,128.784 44.886,168.232c29.923,39.449 72.59,59.184 128,59.184c55.411,-0 97.969,-19.735 127.675,-59.184c29.695,-39.448 44.548,-95.533 44.548,-168.232c-0,-72.699 -14.853,-128.664 -44.548,-167.895c-29.706,-39.23 -72.264,-58.846 -127.675,-58.846Z" style="fill-rule:nonzero;"/><path d="M972.888,3903.23c48.321,-0 87.552,-5.317 117.693,-15.962c57.183,-20.388 85.779,-58.292 85.779,-113.702c0,-32.359 -14.189,-57.401 -42.558,-75.135c-28.368,-17.289 -72.916,-32.587 -133.655,-45.885l-103.731,-23.269c-101.959,-23.052 -172.44,-48.104 -211.453,-75.135c-66.045,-45.222 -99.067,-115.931 -99.067,-212.117c-0,-87.78 31.913,-160.696 95.75,-218.771c63.827,-58.074 157.587,-87.106 281.271,-87.106c103.286,0 191.392,27.368 264.309,82.115c72.927,54.748 111.158,134.21 114.702,238.387l-196.818,0c-3.544,-58.955 -29.26,-100.85 -77.135,-125.674c-31.913,-16.397 -71.59,-24.606 -119.03,-24.606c-52.746,-0 -94.859,10.645 -126.337,31.924c-31.467,21.279 -47.212,50.974 -47.212,89.096c-0,35.023 15.516,61.173 46.549,78.462c19.952,11.526 62.51,25.052 127.674,40.568l168.895,40.558c74.026,17.734 129.882,41.449 167.558,71.144c58.52,46.103 87.78,112.821 87.78,200.156c0,89.541 -34.25,163.904 -102.742,223.088c-68.491,59.172 -165.23,88.769 -290.241,88.769c-127.674,0 -228.079,-29.151 -301.223,-87.443c-73.145,-58.292 -109.712,-138.417 -109.712,-240.376l195.491,-0c6.209,44.776 18.398,78.244 36.578,100.404c33.24,40.34 90.205,60.51 170.885,60.51Z" style="fill-rule:nonzero;"/><path d="M1735.29,3854.69l155.38,-555.224l202.896,0l-255.882,733.427c-47.875,137.417 -85.779,222.642 -113.702,255.675c-27.923,33.023 -83.779,49.539 -167.569,49.539c-16.842,0 -30.358,-0.119 -40.557,-0.337c-10.199,-0.217 -25.487,-1 -45.885,-2.327l-0,-151.606l23.943,1.326c18.615,0.892 36.349,0.228 53.192,-1.99c16.843,-2.218 31.032,-7.317 42.558,-15.298c11.08,-7.536 21.388,-23.269 30.924,-47.212c9.525,-23.933 13.407,-38.568 11.634,-43.885l-273.225,-777.312l211.932,0l164.361,555.224Z" style="fill-rule:nonzero;"/><path d="M2571.16,3351.22c56.737,36.35 89.324,98.86 97.751,187.511l-189.511,-0c-2.664,-24.378 -9.536,-43.657 -20.616,-57.846c-20.833,-25.716 -56.302,-38.568 -106.384,-38.568c-41.232,-0 -70.601,6.426 -88.107,19.289c-17.517,12.852 -26.27,27.923 -26.27,45.211c0,21.725 9.308,37.459 27.934,47.212c18.615,10.2 84.442,27.706 197.481,52.529c75.363,17.735 131.882,44.548 169.558,80.463c37.241,36.349 55.857,81.789 55.857,136.308c-0,71.818 -26.705,130.436 -80.126,175.876c-53.41,45.439 -135.982,68.154 -247.683,68.154c-113.931,-0 -198.047,-24.041 -252.348,-72.145c-54.301,-48.093 -81.463,-109.375 -81.463,-183.857l192.175,0c3.991,33.697 12.635,57.629 25.933,71.819c23.497,25.269 66.936,37.904 130.327,37.904c37.231,-0 66.828,-5.545 88.77,-16.625c21.943,-11.08 32.914,-27.706 32.914,-49.876c-0,-21.279 -8.862,-37.459 -26.596,-48.539c-17.735,-11.08 -83.562,-30.141 -197.492,-57.183c-82.007,-20.387 -139.853,-45.885 -173.549,-76.472c-33.686,-30.14 -50.529,-73.579 -50.529,-130.327c0,-66.936 26.259,-124.456 78.788,-172.549c52.529,-48.103 126.457,-72.144 221.762,-72.144c90.433,-0 164.241,17.952 221.424,53.855Z" style="fill-rule:nonzero;"/><path d="M3088.72,3923.45l-0,141.636l-89.77,3.327c-89.542,3.099 -150.726,-12.417 -183.52,-46.548c-21.279,-21.725 -31.924,-55.193 -31.924,-100.405l-0,-446.175l-101.068,-0l0,-134.982l101.068,0l-0,-202.145l187.51,-0l0,202.145l117.704,0l-0,134.982l-117.704,-0l0,383.001c0,29.706 3.773,48.213 11.308,55.531c7.536,7.306 30.587,10.971 69.155,10.971c5.763,-0 11.862,-0.12 18.289,-0.337c6.426,-0.218 12.743,-0.555 18.952,-1.001Z" style="fill-rule:nonzero;"/><path d="M3754.38,3830.75c-4.871,43.004 -27.259,86.672 -67.164,131.002c-62.054,70.481 -148.943,105.721 -260.655,105.721c-92.206,0 -173.549,-29.695 -244.03,-89.106c-70.481,-59.401 -105.721,-156.033 -105.721,-289.905c-0,-125.456 31.804,-221.652 95.413,-288.589c63.609,-66.936 146.181,-100.404 247.694,-100.404c60.282,0 114.594,11.298 162.904,33.914c48.321,22.606 88.215,58.292 119.694,107.048c28.368,43.004 46.766,92.869 55.192,149.617c4.872,33.25 6.872,81.126 5.981,143.625l-496.041,0c2.653,72.699 25.487,123.684 68.48,152.934c26.161,18.18 57.629,27.27 94.424,27.27c39.014,-0 70.709,-11.091 95.087,-33.251c13.298,-11.971 25.052,-28.597 35.241,-49.876l193.501,0Zm-187.51,-222.087c-3.11,-50.093 -18.289,-88.107 -45.548,-114.039c-27.271,-25.933 -61.065,-38.894 -101.405,-38.894c-43.885,-0 -77.907,13.744 -102.068,41.22c-24.16,27.488 -39.35,64.729 -45.548,111.713l294.569,-0Z" style="fill-rule:nonzero;"/><path d="M4196.82,3514.91c-15.951,-35.023 -47.201,-52.54 -93.749,-52.54c-54.084,0 -90.434,17.517 -109.049,52.54c-10.199,19.942 -15.299,49.648 -15.299,89.096l0,463.356l-192.164,-0l0,-764.742l184.183,-0l0,119.856c23.498,-37.676 45.668,-64.5 66.502,-80.452c36.784,-28.379 84.442,-42.558 142.962,-42.558c55.41,0 100.176,12.189 134.318,36.567c27.477,22.606 48.31,51.648 62.5,87.106c24.824,-42.558 55.639,-73.808 92.423,-93.749c39.014,-19.953 82.452,-29.924 130.339,-29.924c31.913,0 63.38,6.209 94.413,18.615c31.032,12.418 59.183,34.132 84.453,65.164c20.387,25.27 34.131,56.302 41.22,93.098c4.437,24.377 6.655,60.064 6.655,107.047l-1.414,483.972l-194.078,-0l0,-488.625c0,-27.477 -4.436,-50.094 -13.298,-67.817c-16.853,-33.697 -47.875,-50.54 -93.097,-50.54c-52.311,0 -88.433,21.725 -108.385,65.164c-10.199,23.052 -15.288,50.757 -15.288,83.116l-0,458.702l-190.838,-0l0,-458.702c0,-42.993 -4.436,-74.254 -13.309,-93.75Z" style="fill-rule:nonzero;"/><path d="M5388.75,3353.32c56.748,36.349 89.325,98.86 97.752,187.51l-189.511,0c-2.664,-24.378 -9.536,-43.656 -20.616,-57.846c-20.834,-25.704 -56.291,-38.568 -106.385,-38.568c-41.231,0 -70.6,6.427 -88.106,19.29c-17.517,12.852 -26.27,27.922 -26.27,45.211c-0,21.725 9.307,37.459 27.933,47.212c18.615,10.199 84.442,27.705 197.481,52.529c75.363,17.734 131.883,44.548 169.559,80.462c37.241,36.35 55.856,81.79 55.856,136.308c0,71.819 -26.705,130.437 -80.125,175.876c-53.41,45.44 -135.982,68.165 -247.684,68.165c-113.93,0 -198.046,-24.052 -252.347,-72.155c-54.302,-48.093 -81.452,-109.375 -81.452,-183.857l192.164,-0c3.99,33.696 12.634,57.628 25.932,71.818c23.498,25.27 66.937,37.904 130.328,37.904c37.241,0 66.827,-5.545 88.77,-16.625c21.942,-11.08 32.913,-27.705 32.913,-49.876c0,-21.279 -8.861,-37.458 -26.596,-48.538c-17.734,-11.08 -83.561,-30.141 -197.492,-57.183c-82.006,-20.387 -139.852,-45.885 -173.549,-76.472c-33.685,-30.141 -50.528,-73.58 -50.528,-130.328c-0,-66.936 26.259,-124.456 78.788,-172.548c52.54,-48.104 126.457,-72.145 221.761,-72.145c90.434,0 164.242,17.952 221.424,53.856Z" style="fill-rule:nonzero;"/></g></svg>