<?xml version="1.0" encoding="UTF-8" standalone="no"?><!DOCTYPE svg PUBLIC "-//W3C//DTD SVG 1.1//EN" "http://www.w3.org/Graphics/SVG/1.1/DTD/svg11.dtd"><svg width="100%" height="100%" viewBox="0 0 350 350" version="1.1" xmlns="http://www.w3.org/2000/svg" xmlns:xlink="http://www.w3.org/1999/xlink" xml:space="preserve" xmlns:serif="http://www.serif.com/" style="fill-rule:evenodd;clip-rule:evenodd;stroke-linejoin:round;stroke-miterlimit:2;"><path d="M300,175c0,68.989 -56.011,125 -125,125c0,0 -125,0 -125,0l0,-125c0,-68.989 56.011,-125 125,-125l125,0l0,50l-125,0c-41.311,0 -74.866,33.472 -75,74.758l0,0.242l0,75c0,0 75,0 75,-0c32.631,-0 60.422,-20.884 70.725,-50l-95.725,-0l0,-25c0,-13.798 11.202,-25 25,-25l125,0l0,25Z"/></svg>