<?xml version="1.0" encoding="UTF-8" standalone="no"?><!DOCTYPE svg PUBLIC "-//W3C//DTD SVG 1.1//EN" "http://www.w3.org/Graphics/SVG/1.1/DTD/svg11.dtd"><svg width="100%" height="100%" viewBox="0 0 6080 6080" version="1.1" xmlns="http://www.w3.org/2000/svg" xmlns:xlink="http://www.w3.org/1999/xlink" xml:space="preserve" xmlns:serif="http://www.serif.com/" style="fill-rule:evenodd;clip-rule:evenodd;stroke-linejoin:round;stroke-miterlimit:2;"><rect x="0" y="0" width="6076.38" height="6076.38" style="fill:#fff;"/><g><path d="M742.713,3228.27c-31.103,19.126 -69.354,28.689 -114.741,28.689c-74.708,-0 -135.906,-25.88 -183.583,-77.641c-49.722,-52.017 -74.583,-123.16 -74.583,-213.422c0,-91.281 25.111,-164.463 75.346,-219.538c50.228,-55.076 116.655,-82.614 199.268,-82.614c71.65,0 129.214,18.169 172.688,54.5c43.474,36.338 68.397,81.657 74.77,135.969l-115.886,0c-8.925,-38.501 -30.727,-65.401 -65.407,-80.699c-19.376,-8.419 -40.922,-12.621 -64.632,-12.621c-45.388,-0 -82.682,17.143 -111.877,51.441c-29.195,34.293 -43.793,85.866 -43.793,154.707c0,69.36 15.811,118.444 47.427,147.257c31.615,28.808 67.571,43.217 107.855,43.217c39.527,0 71.906,-11.407 97.148,-34.229c25.249,-22.822 40.797,-52.718 46.663,-89.693l-130.421,-0l0,-94.09l234.837,-0l0,316.305l-75.702,0l-14.179,-84.139c-22.69,26.768 -43.092,45.638 -61.198,56.601Z" style="fill-rule:nonzero;"/><path d="M1282.78,2877.93c35.187,44.112 52.781,96.254 52.781,156.427c-0,61.198 -17.594,113.534 -52.781,157.008c-35.186,43.473 -88.604,65.213 -160.26,65.213c-71.649,0 -125.067,-21.74 -160.254,-65.213c-35.187,-43.474 -52.78,-95.81 -52.78,-157.008c0,-60.173 17.593,-112.315 52.78,-156.427c35.187,-44.111 88.605,-66.17 160.254,-66.17c71.656,-0 125.074,22.059 160.26,66.17Zm-160.641,26.006c-31.872,-0 -56.414,11.283 -73.626,33.848c-17.212,22.566 -25.818,54.756 -25.818,96.573c0,41.822 8.606,74.076 25.818,96.766c17.212,22.697 41.754,34.043 73.626,34.043c31.872,-0 56.351,-11.346 73.438,-34.043c17.08,-22.69 25.624,-54.944 25.624,-96.766c-0,-41.817 -8.544,-74.007 -25.624,-96.573c-17.087,-22.565 -41.566,-33.848 -73.438,-33.848Z" style="fill-rule:nonzero;"/><path d="M1561.94,2925.74c-43.855,0 -73.306,14.279 -88.348,42.836c-8.418,16.067 -12.621,40.797 -12.621,74.201l-0,213.034l-109.769,0l-0,-440.703l104.027,-0l0,82.713c16.831,-27.794 33.373,-46.976 44.819,-58.34c9.982,-9.913 24.623,-21.721 56.476,-22.828c2.039,-0.069 31.785,-0.688 36.632,-0.438l3.202,109.813c-9.294,-0.657 -31.103,-0.288 -34.418,-0.288Z" style="fill-rule:nonzero;"/><path d="M1771.78,3132.66l89.374,-319.364l116.705,0l-147.182,421.865c-27.538,79.042 -49.341,128.064 -65.402,147.064c-16.067,18.994 -48.189,28.495 -96.385,28.495c-9.688,-0 -17.462,-0.069 -23.328,-0.194c-5.867,-0.125 -14.66,-0.576 -26.394,-1.339l0,-87.203l13.772,0.763c10.708,0.513 20.909,0.131 30.597,-1.145c9.687,-1.276 17.849,-4.209 24.479,-8.8c6.373,-4.334 12.302,-13.384 17.787,-27.156c5.479,-13.766 7.712,-22.184 6.692,-25.242l-155.976,-443.749l121.284,-1.445l93.977,317.45Z" style="fill-rule:nonzero;"/><path d="M2326.13,3120.7c-2.808,24.736 -15.68,49.853 -38.633,75.352c-35.693,40.541 -85.672,60.811 -149.928,60.811c-53.037,-0 -99.825,-17.081 -140.366,-51.248c-40.54,-34.173 -60.816,-89.755 -60.816,-166.758c-0,-72.163 18.3,-127.494 54.887,-165.996c36.588,-38.501 84.083,-57.752 142.473,-57.752c34.674,-0 65.908,6.498 93.702,19.507c27.794,13.003 50.742,33.529 68.848,61.574c16.317,24.735 26.899,53.418 31.747,86.059c2.802,19.126 3.952,46.663 3.439,82.613l-285.327,-0c1.532,41.816 14.666,71.143 39.396,87.967c15.048,10.457 33.148,15.686 54.312,15.686c22.441,-0 40.672,-6.38 54.694,-19.126c7.649,-6.886 14.404,-16.449 20.27,-28.689l111.302,0Zm-107.856,-127.744c-1.788,-28.813 -10.519,-50.678 -26.199,-65.595c-15.686,-14.916 -35.124,-22.372 -58.328,-22.372c-25.242,0 -44.818,7.906 -58.709,23.711c-13.897,15.81 -22.634,37.231 -26.199,64.256l169.435,0Z" style="fill-rule:nonzero;"/><path d="M2719.82,2879.46c35.186,44.112 52.78,96.26 52.78,156.433c-0,61.198 -17.594,113.534 -52.78,157.008c-35.187,43.474 -88.611,65.207 -160.261,65.207c-71.649,0 -125.067,-21.733 -160.254,-65.207c-35.186,-43.474 -52.78,-95.81 -52.78,-157.008c0,-60.173 17.594,-112.321 52.78,-156.433c35.187,-44.111 88.605,-66.164 160.254,-66.164c71.65,0 125.074,22.053 160.261,66.164Zm-160.642,26.012c-31.872,0 -56.414,11.283 -73.626,33.848c-17.212,22.566 -25.818,54.757 -25.818,96.573c0,41.816 8.606,74.076 25.818,96.767c17.212,22.69 41.754,34.042 73.626,34.042c31.872,-0 56.351,-11.352 73.438,-34.042c17.08,-22.691 25.624,-54.951 25.624,-96.767c-0,-41.816 -8.544,-74.007 -25.624,-96.573c-17.087,-22.565 -41.566,-33.848 -73.438,-33.848Z" style="fill-rule:nonzero;"/><path d="M3098.88,3162.49c27.794,-0 50.36,-3.059 67.697,-9.182c32.891,-11.726 49.34,-33.529 49.34,-65.401c0,-18.613 -8.162,-33.016 -24.479,-43.217c-16.318,-9.944 -41.942,-18.744 -76.878,-26.393l-59.666,-13.385c-58.647,-13.259 -99.187,-27.669 -121.628,-43.217c-37.988,-26.011 -56.983,-66.683 -56.983,-122.009c0,-50.491 18.357,-92.432 55.076,-125.836c36.712,-33.405 90.643,-50.104 161.786,-50.104c59.41,0 110.088,15.743 152.03,47.233c41.947,31.49 63.937,77.197 65.976,137.119l-113.209,0c-2.039,-33.911 -16.83,-58.008 -44.368,-72.287c-18.356,-9.431 -41.178,-14.153 -68.466,-14.153c-30.339,-0 -54.562,6.123 -72.668,18.362c-18.1,12.24 -27.157,29.32 -27.157,51.248c0,20.145 8.925,35.187 26.775,45.131c11.477,6.63 35.956,14.41 73.438,23.335l97.148,23.328c42.579,10.201 74.708,23.842 96.379,40.922c33.661,26.519 50.491,64.895 50.491,115.13c-0,51.504 -19.701,94.277 -59.097,128.319c-39.396,34.036 -95.04,51.06 -166.946,51.06c-73.438,0 -131.19,-16.768 -173.263,-50.297c-42.073,-33.529 -63.106,-79.617 -63.106,-138.264l112.446,0c3.571,25.755 10.582,45.006 21.04,57.752c19.119,23.204 51.885,34.806 98.292,34.806Z" style="fill-rule:nonzero;"/><path d="M3537.41,3134.57l89.374,-319.363l116.706,-0l-147.183,421.865c-27.538,79.042 -49.34,128.063 -65.401,147.064c-16.061,18.994 -48.19,28.495 -96.385,28.495c-9.688,-0 -17.462,-0.069 -23.329,-0.194c-5.866,-0.125 -14.66,-0.576 -26.393,-1.339l0,-87.204l13.772,0.764c10.707,0.512 20.908,0.131 30.596,-1.145c9.688,-1.276 17.85,-4.209 24.479,-8.8c6.374,-4.334 12.303,-13.384 17.788,-27.156c5.478,-13.766 7.711,-22.184 6.692,-25.242l-157.158,-447.108l121.902,-0l94.54,319.363Z" style="fill-rule:nonzero;"/><path d="M4018.2,2844.98c32.635,20.909 51.379,56.865 56.227,107.856l-109.007,-0c-1.532,-14.022 -5.485,-25.111 -11.858,-33.273c-11.983,-14.791 -32.385,-22.184 -61.192,-22.184c-23.716,-0 -40.609,3.696 -50.679,11.095c-10.075,7.393 -15.11,16.061 -15.11,26.006c0,12.496 5.354,21.546 16.067,27.156c10.708,5.866 48.571,15.936 113.591,30.214c43.349,10.201 75.858,25.624 97.53,46.282c21.421,20.908 32.128,47.045 32.128,78.404c-0,41.31 -15.361,75.027 -46.088,101.163c-30.721,26.137 -78.216,39.202 -142.467,39.202c-65.532,0 -113.916,-13.828 -145.15,-41.497c-31.234,-27.663 -46.857,-62.912 -46.857,-105.754l110.539,0c2.295,19.382 7.267,33.148 14.916,41.31c13.516,14.535 38.502,21.802 74.964,21.802c21.415,0 38.439,-3.189 51.06,-9.563c12.622,-6.373 18.932,-15.936 18.932,-28.688c0,-12.24 -5.097,-21.546 -15.298,-27.919c-10.201,-6.373 -48.064,-17.337 -113.597,-32.892c-47.17,-11.727 -80.443,-26.393 -99.825,-43.986c-19.376,-17.337 -29.063,-42.323 -29.063,-74.964c-0,-38.502 15.104,-71.587 45.318,-99.25c30.215,-27.669 72.738,-41.497 127.557,-41.497c52.017,-0 94.471,10.326 127.362,30.977Z" style="fill-rule:nonzero;"/><path d="M4315.9,3174.12l0,81.468l-51.636,1.914c-51.504,1.783 -86.697,-7.142 -105.56,-26.775c-12.239,-12.496 -18.362,-31.746 -18.362,-57.752l-0,-256.639l-58.134,0l-0,-77.641l58.134,0l-0,-116.274l107.855,0l0,116.274l67.703,0l0,77.641l-67.703,0l0,220.302c0,17.086 2.17,27.731 6.505,31.94c4.334,4.203 17.593,6.311 39.777,6.311c3.315,-0 6.823,-0.069 10.52,-0.194c3.696,-0.125 7.33,-0.319 10.901,-0.575Z" style="fill-rule:nonzero;"/><path d="M4698.79,3120.8c-2.802,24.736 -15.68,49.854 -38.633,75.352c-35.694,40.541 -85.672,60.811 -149.929,60.811c-53.036,-0 -99.824,-17.081 -140.365,-51.254c-40.54,-34.167 -60.81,-89.749 -60.81,-166.752c-0,-72.163 18.293,-127.494 54.881,-165.996c36.588,-38.501 84.083,-57.752 142.473,-57.752c34.674,-0 65.914,6.498 93.702,19.507c27.794,13.003 50.741,33.529 68.847,61.574c16.318,24.735 26.9,53.418 31.747,86.059c2.802,19.126 3.953,46.663 3.44,82.613l-285.321,0c1.526,41.816 14.66,71.143 39.389,87.967c15.048,10.457 33.148,15.686 54.313,15.686c22.44,-0 40.672,-6.38 54.694,-19.126c7.649,-6.886 14.41,-16.449 20.27,-28.689l111.302,0Zm-107.856,-127.744c-1.789,-28.813 -10.52,-50.678 -26.199,-65.595c-15.686,-14.916 -35.124,-22.371 -58.328,-22.371c-25.242,-0 -44.812,7.905 -58.709,23.71c-13.897,15.81 -22.634,37.231 -26.199,64.256l169.435,0Z" style="fill-rule:nonzero;"/><path d="M4953.28,2939.13c-9.175,-20.145 -27.15,-30.221 -53.924,-30.221c-31.109,-0 -52.018,10.076 -62.725,30.221c-5.866,11.47 -8.8,28.557 -8.8,51.247l0,266.521l-110.532,0l-0,-439.877l105.942,-0l-0,68.941c13.515,-21.671 26.268,-37.101 38.251,-46.276c21.158,-16.323 48.571,-24.479 82.232,-24.479c31.871,-0 57.62,7.011 77.259,21.033c15.805,13.003 27.788,29.708 35.95,50.103c14.278,-24.479 32.003,-42.454 53.161,-53.924c22.441,-11.477 47.427,-17.212 74.971,-17.212c18.356,-0 36.456,3.571 54.306,10.707c17.85,7.143 34.042,19.633 48.577,37.482c11.727,14.535 19.632,32.385 23.71,53.55c2.552,14.022 3.828,34.548 3.828,61.573l-0.813,278.379l-111.633,0l-0,-281.056c-0,-15.804 -2.552,-28.813 -7.649,-39.008c-9.695,-19.382 -27.538,-29.07 -53.55,-29.07c-30.089,0 -50.866,12.496 -62.343,37.482c-5.866,13.26 -8.793,29.196 -8.793,47.808l-0,263.844l-109.77,0l0,-263.844c0,-24.729 -2.551,-42.71 -7.655,-53.924Z" style="fill-rule:nonzero;"/><path d="M5638.87,2846.18c32.641,20.909 51.379,56.865 56.226,107.856l-109.006,-0c-1.532,-14.022 -5.485,-25.111 -11.858,-33.273c-11.984,-14.785 -32.379,-22.184 -61.192,-22.184c-23.717,0 -40.61,3.696 -50.679,11.095c-10.076,7.393 -15.11,16.061 -15.11,26.006c-0,12.496 5.353,21.546 16.067,27.156c10.707,5.866 48.571,15.936 113.591,30.214c43.348,10.201 75.858,25.624 97.529,46.282c21.421,20.908 32.129,47.045 32.129,78.404c-0,41.31 -15.361,75.027 -46.088,101.163c-30.722,26.137 -78.217,39.209 -142.467,39.209c-65.533,-0 -113.916,-13.835 -145.15,-41.504c-31.234,-27.663 -46.851,-62.912 -46.851,-105.754l110.532,0c2.296,19.382 7.268,33.148 14.917,41.31c13.515,14.535 38.501,21.802 74.964,21.802c21.421,0 38.439,-3.189 51.06,-9.563c12.621,-6.373 18.932,-15.935 18.932,-28.688c-0,-12.24 -5.098,-21.546 -15.298,-27.919c-10.201,-6.373 -48.065,-17.337 -113.597,-32.892c-47.17,-11.726 -80.443,-26.393 -99.825,-43.986c-19.376,-17.337 -29.064,-42.323 -29.064,-74.964c0,-38.502 15.104,-71.587 45.319,-99.25c30.221,-27.669 72.737,-41.497 127.556,-41.497c52.017,-0 94.472,10.326 127.363,30.977Z" style="fill-rule:nonzero;"/></g></svg>