<?xml version="1.0" encoding="UTF-8" standalone="no"?><!DOCTYPE svg PUBLIC "-//W3C//DTD SVG 1.1//EN" "http://www.w3.org/Graphics/SVG/1.1/DTD/svg11.dtd"><svg width="100%" height="100%" viewBox="0 0 1134 426" version="1.1" xmlns="http://www.w3.org/2000/svg" xmlns:xlink="http://www.w3.org/1999/xlink" xml:space="preserve" xmlns:serif="http://www.serif.com/" style="fill-rule:evenodd;clip-rule:evenodd;stroke-linejoin:round;stroke-miterlimit:2;"><rect id="Artboard1" x="0" y="0" width="1133.8" height="425.115" style="fill:none;"/><clipPath id="_clip1"><rect x="0" y="0" width="1133.8" height="425.115"/></clipPath><g clip-path="url(#_clip1)"><rect x="-257.306" y="-521.248" width="1825" height="1558.33" style="fill:#fff;"/><path d="M174.439,208.704c-0,36.714 -29.808,66.522 -66.522,66.522c-0,-0 -66.522,-0 -66.522,-0c-0,-0 -0,-66.522 -0,-66.522c-0,-36.714 29.808,-66.522 66.522,-66.522l66.522,0c-0,0 -0,26.067 -0,26.067c-0,-0 -66.522,-0 -66.522,-0c-22.283,-0 -40.383,18.055 -40.455,40.324l0.338,0.34c0,0 -0.338,-0.335 -0.338,-0.335l-0,0.123c-0,0 0.338,0.342 0.338,0.342l-0.338,-0.339l-0,40.116c-0,0.188 0.151,0.339 0.338,0.339l40.117,0c17.601,0 32.592,-11.265 38.149,-26.97c0.037,-0.104 0.021,-0.219 -0.043,-0.308c-0.063,-0.09 -0.166,-0.144 -0.276,-0.144l-50.863,0c-0,0 -0,-13.033 -0,-13.033c-0,-7.193 5.84,-13.033 13.033,-13.033l66.522,-0c-0,-0 -0,13.033 -0,13.033Z"/><g><path d="M285.255,253.648c-4.973,3.057 -11.089,4.586 -18.346,4.586c-11.945,0 -21.73,-4.138 -29.353,-12.414c-7.95,-8.317 -11.925,-19.691 -11.925,-34.124c-0,-14.595 4.015,-26.296 12.047,-35.102c8.031,-8.806 18.652,-13.209 31.861,-13.209c11.456,0 20.66,2.905 27.611,8.714c6.951,5.81 10.936,13.057 11.955,21.741l-18.529,-0c-1.427,-6.157 -4.913,-10.458 -10.458,-12.904c-3.098,-1.345 -6.543,-2.018 -10.334,-2.018c-7.257,0 -13.22,2.742 -17.888,8.225c-4.668,5.484 -7.002,13.729 -7.002,24.737c0,11.089 2.528,18.937 7.583,23.544c5.055,4.607 10.804,6.91 17.245,6.91c6.32,0 11.497,-1.824 15.533,-5.473c4.036,-3.649 6.523,-8.429 7.461,-14.34l-20.853,-0l-0,-15.044l37.548,-0l-0,50.574l-12.104,-0l-2.267,-13.454c-3.629,4.281 -6.89,7.298 -9.785,9.051Z" style="fill-rule:nonzero;"/><path d="M371.606,197.631c5.626,7.053 8.439,15.39 8.439,25.012c-0,9.784 -2.813,18.152 -8.439,25.103c-5.626,6.951 -14.167,10.427 -25.624,10.427c-11.456,0 -19.997,-3.476 -25.623,-10.427c-5.626,-6.951 -8.439,-15.319 -8.439,-25.103c-0,-9.622 2.813,-17.959 8.439,-25.012c5.626,-7.053 14.167,-10.58 25.623,-10.58c11.457,0 19.998,3.527 25.624,10.58Zm-25.685,4.158c-5.096,0 -9.02,1.805 -11.772,5.413c-2.752,3.608 -4.128,8.755 -4.128,15.441c0,6.686 1.376,11.843 4.128,15.472c2.752,3.628 6.676,5.442 11.772,5.442c5.096,0 9.01,-1.814 11.742,-5.442c2.731,-3.629 4.097,-8.786 4.097,-15.472c0,-6.686 -1.366,-11.833 -4.097,-15.441c-2.732,-3.608 -6.646,-5.413 -11.742,-5.413Z" style="fill-rule:nonzero;"/><path d="M416.241,205.275c-7.012,0 -11.721,2.283 -14.126,6.849c-1.346,2.569 -2.018,6.523 -2.018,11.864l-0,34.063l-17.551,-0l-0,-70.465l16.633,0l0,13.225c2.691,-4.444 5.336,-7.511 7.166,-9.328c1.596,-1.585 3.937,-3.473 9.03,-3.649c0.326,-0.012 5.082,-0.111 5.857,-0.07l0.512,17.558c-1.486,-0.106 -4.973,-0.047 -5.503,-0.047Z" style="fill-rule:nonzero;"/><path d="M449.792,238.359l14.291,-51.063l18.66,0l-23.533,67.452c-4.403,12.639 -7.889,20.477 -10.457,23.514c-2.569,3.037 -7.705,4.556 -15.411,4.556c-1.549,-0 -2.792,-0.01 -3.73,-0.031c-0.938,-0.02 -2.344,-0.091 -4.22,-0.214l0,-13.943l2.202,0.123c1.712,0.081 3.343,0.02 4.892,-0.184c1.549,-0.204 2.854,-0.673 3.914,-1.406c1.019,-0.693 1.967,-2.141 2.844,-4.342c0.876,-2.202 1.233,-3.547 1.07,-4.036l-24.939,-70.951l19.392,-0.232l15.025,50.757Z" style="fill-rule:nonzero;"/><path d="M538.427,236.448c-0.449,3.954 -2.507,7.97 -6.177,12.047c-5.707,6.482 -13.698,9.723 -23.972,9.723c-8.48,0 -15.961,-2.731 -22.443,-8.194c-6.482,-5.463 -9.724,-14.351 -9.724,-26.663c0,-11.538 2.926,-20.385 8.776,-26.541c5.85,-6.156 13.444,-9.234 22.78,-9.234c5.544,0 10.538,1.04 14.982,3.119c4.444,2.079 8.113,5.361 11.008,9.846c2.609,3.954 4.301,8.541 5.076,13.759c0.448,3.058 0.632,7.461 0.55,13.209l-45.621,0c0.245,6.686 2.345,11.375 6.299,14.066c2.406,1.671 5.3,2.507 8.684,2.507c3.588,-0 6.503,-1.019 8.745,-3.058c1.223,-1.1 2.303,-2.629 3.241,-4.586l17.796,-0Zm-17.245,-20.425c-0.286,-4.607 -1.682,-8.103 -4.189,-10.488c-2.508,-2.385 -5.616,-3.578 -9.326,-3.578c-4.037,0 -7.166,1.264 -9.387,3.792c-2.222,2.527 -3.619,5.952 -4.189,10.274l27.091,-0Z" style="fill-rule:nonzero;"/><path d="M601.375,197.876c5.626,7.053 8.439,15.39 8.439,25.011c-0,9.785 -2.813,18.153 -8.439,25.104c-5.627,6.951 -14.168,10.427 -25.624,10.427c-11.456,-0 -19.997,-3.476 -25.623,-10.427c-5.626,-6.951 -8.439,-15.319 -8.439,-25.104c-0,-9.621 2.813,-17.958 8.439,-25.011c5.626,-7.053 14.167,-10.58 25.623,-10.58c11.456,0 19.997,3.527 25.624,10.58Zm-25.685,4.158c-5.096,0 -9.02,1.804 -11.772,5.412c-2.752,3.608 -4.128,8.755 -4.128,15.441c0,6.687 1.376,11.844 4.128,15.472c2.752,3.629 6.676,5.443 11.772,5.443c5.096,-0 9.01,-1.814 11.742,-5.443c2.731,-3.628 4.097,-8.785 4.097,-15.472c-0,-6.686 -1.366,-11.833 -4.097,-15.441c-2.732,-3.608 -6.646,-5.412 -11.742,-5.412Z" style="fill-rule:nonzero;"/><path d="M674.588,242.823c4.444,0 8.052,-0.489 10.824,-1.467c5.259,-1.876 7.889,-5.361 7.889,-10.457c-0,-2.977 -1.305,-5.28 -3.914,-6.911c-2.609,-1.59 -6.706,-2.996 -12.292,-4.219l-9.54,-2.141c-9.377,-2.12 -15.859,-4.423 -19.447,-6.91c-6.074,-4.159 -9.111,-10.661 -9.111,-19.508c-0,-8.072 2.935,-14.779 8.806,-20.12c5.87,-5.34 14.493,-8.011 25.868,-8.011c9.499,0 17.602,2.518 24.308,7.553c6.707,5.035 10.223,12.343 10.549,21.923l-18.101,0c-0.326,-5.422 -2.691,-9.275 -7.094,-11.558c-2.935,-1.508 -6.584,-2.262 -10.947,-2.262c-4.851,-0 -8.724,0.978 -11.619,2.935c-2.894,1.957 -4.342,4.688 -4.342,8.195c0,3.22 1.427,5.626 4.281,7.216c1.835,1.06 5.749,2.303 11.742,3.73l15.533,3.73c6.808,1.631 11.945,3.812 15.41,6.544c5.382,4.24 8.072,10.376 8.072,18.407c0,8.235 -3.149,15.074 -9.448,20.517c-6.299,5.443 -15.196,8.164 -26.693,8.164c-11.742,0 -20.976,-2.681 -27.703,-8.042c-6.727,-5.361 -10.09,-12.73 -10.09,-22.107l17.979,0c0.571,4.118 1.692,7.196 3.363,9.235c3.058,3.709 8.297,5.564 15.717,5.564Z" style="fill-rule:nonzero;"/><path d="M744.705,238.359l14.29,-51.063l18.66,0l-23.533,67.452c-4.403,12.639 -7.889,20.477 -10.457,23.514c-2.568,3.037 -7.705,4.556 -15.411,4.556c-1.549,-0 -2.792,-0.01 -3.73,-0.031c-0.938,-0.02 -2.344,-0.091 -4.22,-0.214l0,-13.943l2.202,0.123c1.712,0.081 3.343,0.02 4.892,-0.184c1.549,-0.204 2.854,-0.673 3.914,-1.406c1.019,-0.693 1.967,-2.141 2.844,-4.342c0.876,-2.202 1.233,-3.547 1.07,-4.036l-25.128,-71.489l19.491,0l15.116,51.063Z" style="fill-rule:nonzero;"/><path d="M821.578,192.056c5.218,3.344 8.215,9.092 8.99,17.246l-17.429,-0c-0.245,-2.243 -0.877,-4.016 -1.896,-5.321c-1.916,-2.364 -5.178,-3.546 -9.785,-3.546c-3.791,-0 -6.492,0.591 -8.102,1.773c-1.611,1.182 -2.416,2.568 -2.416,4.158c0,1.998 0.856,3.445 2.569,4.342c1.712,0.938 7.766,2.548 18.162,4.831c6.931,1.631 12.129,4.098 15.594,7.4c3.425,3.343 5.137,7.522 5.137,12.536c0,6.605 -2.456,11.997 -7.369,16.176c-4.912,4.178 -12.506,6.268 -22.78,6.268c-10.477,-0 -18.213,-2.212 -23.207,-6.635c-4.994,-4.424 -7.492,-10.06 -7.492,-16.909l17.674,-0c0.367,3.098 1.162,5.3 2.385,6.604c2.161,2.324 6.156,3.486 11.986,3.486c3.424,0 6.146,-0.51 8.164,-1.529c2.018,-1.019 3.027,-2.548 3.027,-4.586c-0,-1.957 -0.815,-3.445 -2.446,-4.465c-1.631,-1.019 -7.685,-2.772 -18.163,-5.259c-7.542,-1.875 -12.862,-4.219 -15.961,-7.032c-3.098,-2.773 -4.648,-6.768 -4.648,-11.986c0,-6.157 2.416,-11.446 7.247,-15.87c4.831,-4.423 11.63,-6.635 20.395,-6.635c8.317,0 15.105,1.651 20.364,4.953Z" style="fill-rule:nonzero;"/><path d="M869.18,244.684l-0,13.025l-8.256,0.306c-8.236,0.285 -13.862,-1.141 -16.879,-4.281c-1.956,-1.997 -2.935,-5.075 -2.935,-9.234l0,-41.034l-9.295,0l-0,-12.414l9.295,-0l0,-18.591l17.245,0l0,18.591l10.825,-0l-0,12.414l-10.825,0l0,35.225c0,2.731 0.347,4.433 1.04,5.106c0.693,0.673 2.813,1.009 6.36,1.009c0.53,-0 1.091,-0.01 1.682,-0.031c0.591,-0.02 1.172,-0.051 1.743,-0.091Z" style="fill-rule:nonzero;"/><path d="M930.396,236.158c-0.449,3.954 -2.507,7.97 -6.177,12.047c-5.707,6.482 -13.698,9.723 -23.972,9.723c-8.48,0 -15.961,-2.731 -22.443,-8.194c-6.482,-5.463 -9.723,-14.351 -9.723,-26.663c-0,-11.538 2.925,-20.385 8.775,-26.541c5.85,-6.156 13.444,-9.234 22.78,-9.234c5.544,0 10.539,1.04 14.982,3.119c4.444,2.079 8.113,5.361 11.008,9.846c2.609,3.954 4.301,8.541 5.076,13.759c0.448,3.058 0.632,7.461 0.55,13.209l-45.62,0c0.244,6.686 2.344,11.375 6.298,14.066c2.406,1.671 5.3,2.507 8.684,2.507c3.588,-0 6.503,-1.019 8.745,-3.058c1.223,-1.1 2.304,-2.629 3.241,-4.586l17.796,-0Zm-17.245,-20.426c-0.286,-4.606 -1.682,-8.102 -4.189,-10.487c-2.508,-2.385 -5.616,-3.578 -9.326,-3.578c-4.036,0 -7.165,1.264 -9.387,3.792c-2.222,2.527 -3.619,5.952 -4.189,10.273l27.091,0Z" style="fill-rule:nonzero;"/><path d="M971.09,207.11c-1.467,-3.221 -4.341,-4.831 -8.622,-4.831c-4.974,-0 -8.317,1.61 -10.029,4.831c-0.938,1.834 -1.407,4.566 -1.407,8.194l0,42.615l-17.673,-0l-0,-70.333l16.939,0l0,11.024c2.161,-3.466 4.199,-5.932 6.116,-7.4c3.383,-2.609 7.766,-3.914 13.148,-3.914c5.096,0 9.213,1.121 12.353,3.364c2.527,2.079 4.443,4.749 5.748,8.011c2.283,-3.914 5.117,-6.788 8.5,-8.623c3.588,-1.835 7.583,-2.752 11.986,-2.752c2.936,0 5.83,0.571 8.684,1.712c2.854,1.142 5.443,3.14 7.767,5.993c1.875,2.324 3.139,5.178 3.791,8.562c0.408,2.242 0.612,5.524 0.612,9.846l-0.13,44.51l-17.849,-0l-0,-44.938c-0,-2.528 -0.408,-4.607 -1.223,-6.238c-1.55,-3.099 -4.403,-4.648 -8.562,-4.648c-4.811,0 -8.133,1.998 -9.968,5.993c-0.938,2.12 -1.406,4.668 -1.406,7.644l-0,42.187l-17.551,-0l-0,-42.187c-0,-3.954 -0.408,-6.828 -1.224,-8.622Z" style="fill-rule:nonzero;"/><path d="M1081.11,192.25c5.219,3.343 8.215,9.091 8.99,17.245l-17.429,-0c-0.245,-2.242 -0.876,-4.016 -1.896,-5.321c-1.916,-2.364 -5.177,-3.546 -9.784,-3.546c-3.792,-0 -6.493,0.591 -8.103,1.773c-1.61,1.182 -2.416,2.568 -2.416,4.158c0,1.998 0.856,3.445 2.569,4.342c1.712,0.938 7.766,2.548 18.162,4.831c6.931,1.631 12.129,4.098 15.594,7.4c3.425,3.343 5.137,7.522 5.137,12.537c0,6.604 -2.456,11.996 -7.369,16.175c-4.912,4.178 -12.505,6.268 -22.779,6.268c-10.478,-0 -18.214,-2.212 -23.208,-6.635c-4.994,-4.424 -7.491,-10.06 -7.491,-16.909l17.673,-0c0.367,3.098 1.162,5.3 2.385,6.604c2.161,2.324 6.156,3.486 11.986,3.486c3.425,0 6.146,-0.51 8.164,-1.529c2.018,-1.019 3.027,-2.548 3.027,-4.586c0,-1.957 -0.815,-3.445 -2.446,-4.464c-1.631,-1.02 -7.685,-2.773 -18.163,-5.26c-7.542,-1.875 -12.862,-4.219 -15.961,-7.032c-3.098,-2.773 -4.647,-6.768 -4.647,-11.986c-0,-6.157 2.415,-11.446 7.246,-15.87c4.832,-4.423 11.63,-6.635 20.395,-6.635c8.317,0 15.105,1.651 20.364,4.954Z" style="fill-rule:nonzero;"/></g></g></svg>